<svg width="157" height="90" viewBox="0 0 157 90" fill="none" xmlns="http://www.w3.org/2000/svg">
  <path d="M83.6851 35.2953C122.994 51.3865 153.233 68.7865 151.47 74.2472L156.672 76.361C156.956 68.1876 125.794 48.7835 84.9245 32.0524C43.9992 15.3251 8.389 7.30738 3.13465 13.4661L8.39599 15.6331C10.7369 10.42 44.3168 19.1507 83.6851 35.2953Z" fill="#B19DC6"/>
  <path d="M19.4261 19.9901C20.8098 16.3928 48.6667 24.4235 81.6161 37.9058C114.565 51.3882 140.124 65.2607 138.741 68.858C138.745 68.9152 138.693 68.9762 138.641 69.0371L151.359 74.2549C151.998 68.8135 122.022 51.9697 83.3485 36.1222C44.6708 20.2176 11.6385 11.2772 8.45207 15.6294L19.378 20.1082C19.3741 20.0511 19.4261 19.9901 19.4261 19.9901Z" fill="#9B51E0"/>
  <path d="M83.6852 35.2953C44.3767 19.204 10.7929 10.4162 8.39606 15.6332L8.45199 15.6293C11.6345 11.22 44.6707 20.2175 83.4004 36.0612C122.074 51.9087 152.05 68.7525 151.411 74.1939L151.467 74.1901C153.233 68.7866 122.994 51.3865 83.6852 35.2953Z" fill="#9B51E0"/>
  <path d="M82.0272 84.2176C103.34 82.7613 119.411 63.9241 117.923 42.1435C116.435 20.3628 97.9509 3.88667 76.6378 5.34295C55.3248 6.79922 39.2536 25.6365 40.7418 47.4171C42.23 69.1977 60.7141 85.6739 82.0272 84.2176Z" fill="#E98E50"/>
  <mask id="mask0_64_125" style="mask-type:alpha" maskUnits="userSpaceOnUse" x="40" y="5" width="79" height="80">
  <path d="M82.0113 83.989C103.324 82.5327 119.396 63.6955 117.907 41.9148C116.419 20.1342 97.935 3.65806 76.622 5.11434C55.3089 6.57062 39.2377 25.4078 40.7259 47.1885C42.2141 68.9691 60.6982 85.4452 82.0113 83.989Z" fill="#FAEDB4"/>
</mask>
<g mask="url(#mask0_64_125)">
  <path d="M81.6876 90.1833C103.001 88.7271 119.072 69.8898 117.584 48.1092C116.095 26.3286 97.6113 9.85243 76.2982 11.3087C54.9852 12.765 38.914 31.6022 40.4022 53.3828C41.8904 75.1635 60.3745 91.6396 81.6876 90.1833Z" fill="#EB6662"/>
  <path d="M122.963 50.1253C124.635 74.5879 37.8897 80.515 36.2183 56.0524C34.5468 31.5898 52.595 10.3737 76.5883 8.73424C100.582 7.09483 121.288 25.6056 122.963 50.1253Z" fill="#E63D6F"/>
  <path d="M116.838 31.1925C118.177 50.7969 41.0516 56.0667 39.7121 36.4623C38.3725 16.858 54.5129 -0.208265 75.8217 -1.66425C97.1304 -3.12023 115.498 11.5882 116.838 31.1925Z" fill="#BB6BD9"/>
  <path d="M48.4943 37.5275C48.4943 37.5275 54.4382 11.8555 71.9349 13.8183L48.4943 37.5275Z" fill="#B19DC6"/>
</g>
  <path d="M151.411 74.194L151.415 74.2511C151.419 74.3083 151.367 74.3692 151.367 74.3692C151.37 74.4264 151.37 74.4264 151.318 74.4874C150.793 75.844 147.841 76.218 143.08 75.6245C134.817 74.7536 121.141 71.1516 104.741 65.4964C95.878 62.4269 86.1891 58.7823 76.0775 54.7071C62.4929 49.1466 49.9633 43.3991 39.4861 38.0857C27.8434 32.1628 18.7644 26.7538 13.4783 22.5786C9.6242 19.6263 7.7264 17.3442 8.24788 15.9305C8.24398 15.8733 8.29991 15.8695 8.29991 15.8695C8.296 15.8123 8.34802 15.7513 8.34412 15.6942C8.34412 15.6942 8.34021 15.637 8.39614 15.6332L3.13481 13.4661C2.92671 13.71 2.77455 13.9501 2.62629 14.2474C-0.337497 21.8574 31.7226 42.0615 74.2126 59.4858C116.703 76.91 153.543 84.8437 156.455 77.2946C156.547 77.0012 156.64 76.7078 156.616 76.3649L151.411 74.194Z" fill="#B19DC6"/>
  <path d="M138.636 68.98C136.494 72.1697 108.981 64.2304 76.5467 50.8851C44.1124 37.5398 18.7966 23.9378 19.3778 20.1082L8.45194 15.6293C8.39992 15.6903 8.34789 15.7513 8.3518 15.8085C7.94607 17.2717 9.79186 19.6148 13.5302 22.5176C18.8683 26.6318 27.9954 31.9226 39.6342 37.7884C49.5443 43.0258 61.7865 48.678 75.1994 54.1928C85.778 58.5232 95.8662 62.2554 104.945 65.1953C121.349 70.9077 134.977 74.6277 143.192 75.6168C147.833 76.1036 150.729 75.7335 151.422 74.3654C151.418 74.3082 151.467 74.1901 151.463 74.1329L138.636 68.98Z" fill="#9B51E0"/>
  <path d="M75.0916 54.2576C61.6787 48.7428 49.4365 43.0906 39.5264 37.8532C27.8877 31.9874 18.7606 26.6966 13.4224 22.5824C18.7085 26.7575 27.8434 32.1627 39.4302 38.0894C49.9074 43.4029 62.437 49.1504 76.0216 54.7109C86.0812 58.847 95.7701 62.4917 104.685 65.5001C121.141 71.1516 134.817 74.7535 143.024 75.6283C134.809 74.6392 121.182 70.9191 104.777 65.2067C95.8143 62.3164 85.6702 58.588 75.0916 54.2576Z" fill="#653689"/>
</svg>
